<svg width="144" height="30" viewBox="0 0 144 30" fill="none" xmlns="http://www.w3.org/2000/svg">
    <path d="M14.9162 10.2358L14.0977 13.5206C15.026 13.7505 17.8893 14.6963 18.3526 12.8379C18.8367 10.8994 15.8463 10.4744 14.9162 10.2358Z" fill="#6F7D9D" fill-opacity="0.4"/>
    <path d="M13.6891 15.177L12.7852 18.7997C13.8998 19.0766 17.3396 20.1808 17.8482 18.1378C18.3794 16.0078 14.8038 15.4557 13.6891 15.177Z" fill="#6F7D9D" fill-opacity="0.4"/>
    <path d="M18.6189 0.456359C15.7418 -0.260911 12.7166 -0.108921 9.92591 0.893112C7.13518 1.89515 4.70425 3.70222 2.94053 6.08581C1.17681 8.46941 0.159507 11.3225 0.017265 14.2842C-0.124977 17.246 0.61423 20.1834 2.14141 22.7251C3.66859 25.2667 5.91515 27.2984 8.59701 28.5633C11.2789 29.8282 14.2756 30.2694 17.2082 29.8311C20.1408 29.3929 22.8776 28.0948 25.0725 26.1012C27.2674 24.1075 28.8218 21.5078 29.5392 18.6307C30.0156 16.7203 30.111 14.7348 29.82 12.7876C29.529 10.8403 28.8573 8.96945 27.8433 7.2818C26.8292 5.59414 25.4927 4.12275 23.91 2.95164C22.3272 1.78052 20.5294 0.932627 18.6189 0.456359ZM21.6059 12.8675C21.3899 14.327 20.5801 15.0342 19.5055 15.2832C20.9807 16.0513 21.7313 17.2304 21.0172 19.2734C20.129 21.8093 18.0198 22.0235 15.214 21.494L14.533 24.2215L12.8871 23.8122L13.5594 21.1196C13.1327 21.0133 12.6973 20.9019 12.2479 20.7712L11.5739 23.4761L9.93148 23.065L10.6125 20.3323C10.2276 20.2331 9.83743 20.1286 9.43859 20.0293L7.29807 19.4963L8.11492 17.6153C8.11492 17.6153 9.33409 17.9375 9.3097 17.9132C9.38494 17.9375 9.46425 17.9467 9.54306 17.9402C9.62187 17.9338 9.69863 17.9118 9.76889 17.8755C9.83916 17.8392 9.90156 17.7894 9.95248 17.7289C10.0034 17.6684 10.0418 17.5984 10.0656 17.523L11.1402 13.2089L11.3144 13.2524C11.2577 13.2301 11.1995 13.2121 11.1402 13.1984L11.9118 10.1261C11.9309 9.77779 11.8107 9.33541 11.1437 9.16821C11.1698 9.15253 9.9489 8.87212 9.9489 8.87212L10.3878 7.11477L12.652 7.68082C13.0003 7.76616 13.3486 7.85499 13.697 7.92814L14.3693 5.2268L16.0151 5.63609L15.3533 8.28518C15.7945 8.38504 16.234 8.48837 16.6718 8.5952L17.3284 5.96353L18.9725 6.37282L18.3072 9.08112C20.385 9.79869 21.9037 10.8716 21.6059 12.8675Z" fill="#6F7D9D" fill-opacity="0.4"/>
    <path d="M43.9468 9.08109C45.0317 9.05496 46.1084 9.27529 47.0958 9.7255C47.9525 10.1335 48.7066 10.7287 49.3025 11.4672C49.8986 12.2338 50.3367 13.1111 50.5913 14.0483C50.8747 15.0868 51.0141 16.1592 51.0058 17.2356C51.0153 20.5934 49.7238 23.8244 47.4023 26.2505C46.2762 27.4083 44.935 28.3354 43.4539 28.9797C41.8995 29.6586 40.2193 30.0016 38.5232 29.9864C38.2951 29.9864 37.8928 29.9864 37.325 29.9672C36.672 29.9457 36.0207 29.8876 35.3743 29.7931C34.5884 29.6799 33.8088 29.5265 33.0387 29.3333C32.2329 29.1393 31.4499 28.8602 30.7031 28.5007L37.2692 0.910894L43.1509 0L40.7996 9.78995C41.289 9.57174 41.7966 9.3969 42.3166 9.26744C42.8504 9.13927 43.3979 9.07669 43.9468 9.08109ZM39.0144 25.3257C39.8903 25.3264 40.7521 25.1047 41.5189 24.6813C42.307 24.2498 42.9987 23.6618 43.5515 22.9535C44.1295 22.2153 44.5841 21.3883 44.8978 20.5047C45.2267 19.5914 45.3941 18.6278 45.3924 17.6571C45.3924 16.4379 45.1886 15.4957 44.7846 14.8112C44.3805 14.1267 43.6281 13.7836 42.5413 13.7836C42.0756 13.8011 41.613 13.8653 41.1601 13.9752C40.5873 14.1065 40.0574 14.3816 39.6205 14.7746L37.116 25.1707C37.2675 25.1985 37.4016 25.2229 37.5148 25.2473C37.6325 25.2735 37.7518 25.2921 37.8719 25.303C38.024 25.3196 38.1769 25.3272 38.3299 25.3257H39.0144ZM57.1017 29.4587H51.4848L56.2274 9.49909H61.886L57.1017 29.4587ZM59.8344 7.06597C59.0688 7.07357 58.322 6.82873 57.7095 6.3693C57.0738 5.90427 56.7586 5.18845 56.7586 4.22356C56.7555 3.7075 56.8648 3.19697 57.079 2.72746C57.2859 2.27105 57.5766 1.85751 57.9359 1.50829C58.2948 1.1653 58.7118 0.888735 59.1673 0.691445C59.6416 0.490906 60.1519 0.389552 60.6669 0.393619C61.4325 0.386013 62.1793 0.630857 62.7917 1.09029C63.4222 1.55473 63.738 2.2694 63.7392 3.23429C63.742 3.75237 63.6314 4.26479 63.4152 4.73561C63.2112 5.19232 62.9222 5.60606 62.5636 5.95478C62.2047 6.29823 61.787 6.57432 61.3305 6.76988C60.8577 6.9739 60.3475 7.07654 59.8326 7.07119L59.8344 7.06597ZM66.8011 4.52487L72.6844 3.6192L71.2388 9.50257H77.5402L76.4064 14.1319H70.1451L68.4765 21.1126C68.3316 21.6458 68.2428 22.1928 68.2118 22.7445C68.1741 23.1914 68.2384 23.6411 68.3999 24.0595C68.5567 24.4345 68.8472 24.7381 69.215 24.9112C69.6069 25.1149 70.1677 25.2177 70.9027 25.2177C71.4963 25.2185 72.0885 25.1601 72.6705 25.0435C73.256 24.9276 73.8322 24.7692 74.3947 24.5698L74.8145 28.8978C74.0082 29.1887 73.1845 29.4289 72.3483 29.6172C71.3135 29.8328 70.2579 29.9327 69.2011 29.915C67.4594 29.915 66.1055 29.6572 65.1395 29.1417C64.2358 28.6852 63.5119 27.938 63.0843 27.0203C62.6707 26.0449 62.4917 24.986 62.5618 23.9289C62.6206 22.6879 62.7956 21.4552 63.0843 20.247L66.8063 4.53706L66.8011 4.52487ZM77.2929 21.4888C77.282 19.8325 77.5645 18.1873 78.1272 16.6295C78.6577 15.1587 79.4713 13.806 80.522 12.648C81.5802 11.4959 82.8675 10.5776 84.3014 9.95192C85.8632 9.27728 87.5501 8.94073 89.2512 8.96439C90.2787 8.95199 91.3041 9.06072 92.3061 9.28834C93.1507 9.48594 93.9721 9.77199 94.7567 10.1418L92.8199 14.5499C92.3021 14.3433 91.7766 14.1598 91.2437 13.9996C90.596 13.8191 89.9252 13.7352 89.253 13.7505C87.3772 13.7505 85.895 14.3984 84.7925 15.6855C83.6901 16.9726 83.1345 18.7108 83.1345 20.8861C83.1345 22.1761 83.4137 23.2211 83.9722 24.0212C84.5278 24.8188 85.5554 25.2159 87.0445 25.2159C87.7595 25.2177 88.4725 25.1418 89.1711 24.9895C89.7945 24.8559 90.4044 24.6653 90.9929 24.42L91.4179 28.9362C90.6497 29.2303 89.8645 29.478 89.0666 29.6781C88.0576 29.9062 87.0251 30.0138 85.9908 29.9986C84.4221 29.9986 83.0938 29.771 82.0059 29.3158C80.985 28.9056 80.066 28.2773 79.3132 27.4749C78.5997 26.698 78.0736 25.7679 77.7753 24.7561C77.4557 23.6984 77.2949 22.599 77.2981 21.494L77.2929 21.4888ZM102.244 29.9881C101.054 30.0124 99.8715 29.8053 98.7608 29.3785C97.823 29.0085 96.9849 28.4239 96.3137 27.6717C95.6552 26.9137 95.158 26.0296 94.8524 25.0731C94.5138 24.0033 94.3486 22.8861 94.363 21.764C94.3665 20.2158 94.6151 18.678 95.0998 17.2077C95.5748 15.7212 96.3147 14.3328 97.2838 13.1096C98.2479 11.8903 99.4458 10.876 100.807 10.1261C102.201 9.35627 103.792 8.96962 105.586 8.96962C106.776 8.94627 107.959 9.15265 109.07 9.57746C110.009 9.94792 110.85 10.5323 111.524 11.2843C112.181 12.0434 112.677 12.928 112.982 13.8846C113.323 14.9576 113.489 16.0784 113.474 17.2042C113.469 18.7507 113.227 20.2872 112.757 21.7605C112.295 23.2406 111.575 24.6273 110.63 25.8569C109.681 27.0834 108.485 28.0979 107.121 28.8351C105.719 29.6073 104.094 29.9934 102.244 29.9934V29.9881ZM105.052 13.747C104.259 13.7341 103.485 13.9867 102.852 14.4646C102.207 14.9626 101.666 15.5821 101.26 16.2881C100.822 17.0407 100.496 17.8526 100.29 18.6986C100.083 19.5104 99.9753 20.3444 99.9695 21.1822C99.9695 22.4502 100.172 23.4371 100.576 24.1431C100.981 24.8485 101.713 25.2038 102.777 25.2038C103.571 25.2171 104.347 24.9625 104.979 24.481C105.625 23.9865 106.167 23.3699 106.576 22.6661C107.014 21.9137 107.341 21.1018 107.548 20.2557C107.751 19.4438 107.858 18.6108 107.866 17.7738C107.866 16.5111 107.662 15.5218 107.257 14.8129C106.851 14.1041 106.118 13.7505 105.055 13.7505L105.052 13.747ZM119.602 29.4587H113.979L118.724 9.49909H124.381L119.602 29.4587ZM122.331 7.06597C121.566 7.07436 120.819 6.82942 120.208 6.3693C119.574 5.90485 119.256 5.18961 119.255 4.22356C119.253 3.70725 119.364 3.19671 119.579 2.72746C119.784 2.27042 120.074 1.85665 120.434 1.50829C120.793 1.16487 121.211 0.88826 121.667 0.691445C122.14 0.488869 122.649 0.385712 123.163 0.388392C123.93 0.380403 124.677 0.625267 125.29 1.08506C125.922 1.55531 126.241 2.2694 126.241 3.22906C126.242 3.7471 126.13 4.25919 125.915 4.73038C125.712 5.18702 125.423 5.60077 125.065 5.94956C124.706 6.29235 124.288 6.56837 123.832 6.76466C123.358 6.96885 122.847 7.07149 122.331 7.06597ZM128.427 10.4065C128.853 10.2811 129.331 10.1313 129.848 9.9676C130.423 9.78995 131.003 9.63958 131.59 9.5165C132.303 9.36203 133.025 9.24576 133.751 9.16817C134.651 9.07232 135.556 9.02696 136.461 9.03232C139.423 9.03232 141.467 9.89329 142.593 11.6152C143.72 13.3372 143.917 15.6902 143.184 18.6742L140.61 29.4587H134.954L137.459 18.9076C137.612 18.2493 137.731 17.6118 137.821 16.9918C137.912 16.4509 137.905 15.8981 137.8 15.3598C137.71 14.9099 137.463 14.5065 137.104 14.2208C136.734 13.9299 136.174 13.7853 135.414 13.7853C134.662 13.7878 133.913 13.8648 133.176 14.0152L129.491 29.4587H123.836L128.428 10.41L128.427 10.4065Z" fill="#6F7D9D" fill-opacity="0.4"/>
</svg>
