<svg width="133" height="30" viewBox="0 0 133 30" fill="none" xmlns="http://www.w3.org/2000/svg">
    <path d="M44.985 11.3463H43.5383V8.91826C43.5394 8.74633 43.5033 8.57619 43.4324 8.41955C43.3615 8.2629 43.2576 8.12347 43.1277 8.01082C42.9927 7.89611 42.8344 7.81219 42.6638 7.76491C42.4931 7.71763 42.3142 7.70814 42.1395 7.73709C41.8614 7.78585 41.6097 7.93206 41.4297 8.14951C41.2496 8.36695 41.1528 8.64143 41.1568 8.92373V11.3408H39.7977C39.4826 11.3451 39.1816 11.4722 38.9589 11.6952C38.7362 11.9181 38.6094 12.2192 38.6055 12.5343C38.6039 12.6913 38.6336 12.8471 38.6929 12.9925C38.7522 13.1378 38.84 13.2699 38.951 13.3809C39.0621 13.492 39.1941 13.5797 39.3395 13.6391C39.4849 13.6984 39.6406 13.7281 39.7977 13.7264H41.1568V21.6771C41.1571 21.9933 41.2828 22.2965 41.5062 22.5202C41.7297 22.7439 42.0327 22.8699 42.3489 22.8706C42.664 22.8663 42.9649 22.7392 43.1876 22.5163C43.4103 22.2933 43.5371 21.9922 43.541 21.6771V13.7319H44.9877C45.1448 13.7337 45.3007 13.7042 45.4463 13.6449C45.5918 13.5857 45.724 13.498 45.8352 13.3869C45.9464 13.2759 46.0343 13.1437 46.0937 12.9983C46.1531 12.8528 46.1828 12.6969 46.1812 12.5398C46.181 12.3829 46.1499 12.2275 46.0897 12.0826C46.0295 11.9377 45.9413 11.8061 45.8303 11.6953C45.7192 11.5845 45.5874 11.4966 45.4423 11.4367C45.2973 11.3768 45.1419 11.3461 44.985 11.3463Z" fill="#6F7D9D" fill-opacity="0.4"/>
    <path d="M30.1043 11.145H30.0947C27.0289 11.145 24.5352 13.8126 24.5352 17.0919C24.5352 20.3713 27.0289 23.0389 30.0947 23.0389C32.1478 23.0389 33.9914 22.0575 34.8974 20.4781L34.918 20.4384C35.0432 20.2042 35.0875 19.9352 35.0439 19.6733C35.0115 19.479 34.9309 19.2961 34.8094 19.1411C34.688 18.9861 34.5295 18.8642 34.3486 18.7864C34.0908 18.6748 33.8019 18.6576 33.5326 18.7377C33.2634 18.8177 33.0309 18.99 32.8759 19.2243C32.1916 20.2057 31.332 20.6423 30.1002 20.6423C28.6029 20.6423 27.5572 19.535 27.1384 18.2786H34.4841C34.8038 18.279 35.1106 18.1525 35.3371 17.927C35.5637 17.7014 35.6916 17.3952 35.6926 17.0755C35.679 13.8016 33.1756 11.145 30.1043 11.145ZM27.1384 15.8943C27.5558 14.6379 28.5988 13.5293 30.1043 13.5293C31.5743 13.5293 32.6555 14.6242 33.073 15.8943H27.1384Z" fill="#6F7D9D" fill-opacity="0.4"/>
    <path d="M54.7173 11.1725C53.7486 11.1725 52.8049 11.4802 52.0224 12.0512V4.25658C52.022 3.94052 51.8963 3.63751 51.6728 3.41402C51.4493 3.19053 51.1463 3.06482 50.8302 3.06445C50.5152 3.06835 50.214 3.19516 49.9911 3.41785C49.7682 3.64053 49.641 3.94149 49.6367 4.25658V21.632C49.6355 21.8041 49.6716 21.9745 49.7425 22.1314C49.8133 22.2883 49.9174 22.4279 50.0474 22.5408C50.1824 22.6553 50.3407 22.739 50.5114 22.7863C50.682 22.8336 50.8608 22.8432 51.0355 22.8145C51.3139 22.7657 51.5657 22.6193 51.7458 22.4016C51.9259 22.1839 52.0225 21.9091 52.0183 21.6265V17.6573C52.0183 17.6409 52.0183 17.5615 52.0059 17.4685C52.0059 17.4041 51.9922 17.3316 51.9909 17.3029V17.2536C51.9129 16.0505 52.2249 14.9788 52.8477 14.3164C53.313 13.8196 53.9426 13.5664 54.72 13.5664C56.2461 13.5664 56.9414 15.0117 56.9414 16.3544V21.632C56.9396 21.7891 56.9691 21.945 57.0284 22.0906C57.0876 22.2361 57.1754 22.3683 57.2864 22.4795C57.3974 22.5907 57.5296 22.6786 57.6751 22.738C57.8205 22.7974 57.9764 22.8271 58.1335 22.8255C58.4497 22.8248 58.7527 22.6987 58.9762 22.475C59.1996 22.2513 59.3253 21.9482 59.3256 21.632V16.3448C59.3284 13.8373 57.7133 11.1725 54.7173 11.1725Z" fill="#6F7D9D" fill-opacity="0.4"/>
    <path d="M110.586 11.4571L110.56 11.4489C110.383 11.3957 110.197 11.3848 110.015 11.4171C109.833 11.4495 109.662 11.5241 109.514 11.635C109.364 11.746 109.242 11.8903 109.158 12.0566C109.073 12.2229 109.028 12.4065 109.027 12.5931V15.9792C109.027 18.1759 108.723 20.697 106.36 20.697C104.833 20.697 104.138 19.2531 104.138 17.9104V12.5986C104.138 12.2825 104.012 11.9795 103.789 11.756C103.565 11.5325 103.262 11.4068 102.946 11.4064C102.631 11.4107 102.33 11.5376 102.108 11.7603C101.885 11.9829 101.758 12.2837 101.754 12.5986V17.9159C101.754 19.2503 102.165 20.5027 102.915 21.4443C103.276 21.8958 103.724 22.2712 104.232 22.5487C104.739 22.8263 105.297 23.0005 105.872 23.0613C106.447 23.1222 107.029 23.0684 107.584 22.9031C108.138 22.7379 108.654 22.4644 109.102 22.0986C109.185 22.3296 109.337 22.5293 109.538 22.6696C109.739 22.8099 109.979 22.884 110.225 22.8815C110.541 22.8811 110.844 22.7552 111.068 22.5314C111.291 22.3076 111.417 22.0043 111.417 21.688V12.615C111.417 12.3592 111.337 12.1098 111.188 11.902C111.039 11.6943 110.828 11.5386 110.586 11.4571Z" fill="#6F7D9D" fill-opacity="0.4"/>
    <path d="M68.6252 11.145H68.6156C65.5498 11.145 63.0547 13.8126 63.0547 17.0919C63.0547 20.3713 65.5498 23.0389 68.6156 23.0389C70.6687 23.0389 72.5123 22.0575 73.4183 20.4781L73.4389 20.4384C73.5641 20.2042 73.6084 19.9352 73.5648 19.6733C73.5324 19.479 73.4518 19.2961 73.3303 19.1411C73.2089 18.9861 73.0504 18.8642 72.8695 18.7864C72.6117 18.6748 72.3228 18.6576 72.0535 18.7377C71.7843 18.8177 71.5518 18.99 71.3968 19.2243C70.7125 20.2057 69.8529 20.6423 68.6211 20.6423C67.1238 20.6423 66.0781 19.535 65.6593 18.2786H73.0036C73.3235 18.279 73.6304 18.1525 73.8572 17.927C74.0839 17.7015 74.2121 17.3953 74.2135 17.0755C74.2067 13.8016 71.7007 11.145 68.6252 11.145ZM65.6593 15.8943C66.0781 14.6365 67.1238 13.5293 68.6211 13.5293C70.0911 13.5293 71.1723 14.6242 71.5898 15.8943H65.6593Z" fill="#6F7D9D" fill-opacity="0.4"/>
    <path d="M127.811 11.1726C127.096 11.1744 126.392 11.341 125.752 11.6596C125.112 11.9782 124.554 12.4401 124.122 13.0094C123.716 12.4377 123.178 11.9728 122.554 11.6541C121.93 11.3355 121.237 11.1726 120.536 11.1795C119.534 11.1781 118.559 11.5034 117.758 12.106C117.687 11.9273 117.574 11.7685 117.428 11.6434C117.293 11.5287 117.135 11.4448 116.964 11.3975C116.793 11.3502 116.615 11.3408 116.44 11.3697C116.162 11.4185 115.91 11.5647 115.73 11.7821C115.55 11.9996 115.453 12.274 115.457 12.5563V21.6321C115.456 21.8042 115.492 21.9746 115.563 22.1315C115.634 22.2884 115.738 22.4281 115.868 22.5409C116.087 22.7262 116.365 22.8271 116.652 22.8256C116.719 22.8255 116.786 22.82 116.852 22.8091C117.132 22.7624 117.386 22.6169 117.568 22.3989C117.75 22.181 117.848 21.9051 117.844 21.6211V17.7176C117.859 17.6118 117.859 17.5045 117.844 17.3987V17.3892C117.795 15.9698 118.095 14.8804 118.712 14.2412C119.154 13.7841 119.752 13.5569 120.539 13.5569C122.292 13.5569 122.76 15.2896 122.76 16.312V21.6321C122.759 21.7892 122.788 21.9451 122.847 22.0906C122.907 22.2362 122.994 22.3684 123.105 22.4796C123.216 22.5908 123.349 22.6786 123.494 22.7381C123.64 22.7975 123.795 22.8272 123.953 22.8256C124.269 22.8252 124.572 22.6993 124.796 22.4755C125.019 22.2517 125.145 21.9484 125.145 21.6321V17.526C125.145 16.1573 125.703 13.5569 127.814 13.5569C129.566 13.5569 130.034 15.2896 130.034 16.312V21.6321C130.032 21.7892 130.061 21.9451 130.121 22.0906C130.18 22.2362 130.268 22.3684 130.379 22.4796C130.49 22.5908 130.622 22.6786 130.767 22.7381C130.913 22.7975 131.069 22.8272 131.226 22.8256C131.542 22.8252 131.846 22.6993 132.069 22.4756C132.293 22.2519 132.419 21.9485 132.419 21.6321V16.312C132.422 13.821 130.806 11.1726 127.811 11.1726Z" fill="#6F7D9D" fill-opacity="0.4"/>
    <path d="M92.4494 11.145H92.4385C89.3726 11.145 86.8789 13.8126 86.8789 17.0919C86.8789 20.3713 89.3726 23.0389 92.4385 23.0389C94.4915 23.0389 96.3365 22.0575 97.2412 20.4781L97.2631 20.4384C97.3884 20.2042 97.4326 19.9352 97.389 19.6733C97.3567 19.479 97.276 19.2961 97.1546 19.1411C97.0331 18.9861 96.8746 18.8642 96.6937 18.7864C96.4359 18.6748 96.147 18.6576 95.8778 18.7377C95.6085 18.8177 95.376 18.99 95.221 19.2243C94.5367 20.2057 93.6771 20.6423 92.444 20.6423C90.948 20.6423 89.9023 19.535 89.4835 18.2786H96.8224C97.1422 18.279 97.4491 18.1525 97.6759 17.927C97.9027 17.7015 98.0308 17.3953 98.0323 17.0755C98.0255 13.8016 95.5208 11.145 92.4494 11.145ZM89.4835 15.8943C89.9023 14.6365 90.948 13.5293 92.444 13.5293C93.9153 13.5293 94.9966 14.6242 95.414 15.8943H89.4835Z" fill="#6F7D9D" fill-opacity="0.4"/>
    <path d="M83.1673 11.3517C82.1682 11.3517 81.2334 11.7706 80.4683 12.3687C80.4269 12.0861 80.2856 11.8278 80.07 11.6405C79.935 11.526 79.7767 11.4422 79.6061 11.3949C79.4354 11.3476 79.2565 11.338 79.0818 11.3668C78.8036 11.4155 78.5518 11.5617 78.3715 11.7791C78.1912 11.9965 78.0942 12.271 78.0978 12.5534V21.5991C78.0965 21.7566 78.1266 21.9128 78.1865 22.0586C78.2464 22.2043 78.3347 22.3367 78.4464 22.4478C78.5581 22.559 78.6908 22.6467 78.8368 22.7059C78.9828 22.7651 79.1392 22.7946 79.2967 22.7926C79.365 22.7925 79.4332 22.787 79.5007 22.7761C79.779 22.7273 80.0308 22.5809 80.2109 22.3632C80.391 22.1455 80.4876 21.8707 80.4834 21.5881V17.6189C80.4834 16.5746 80.7571 14.1042 83.3439 13.7291C83.6413 13.6966 83.9155 13.5531 84.1119 13.3273C84.3082 13.1016 84.4123 12.8101 84.4033 12.511C84.4032 12.3601 84.3727 12.2108 84.3134 12.072C84.2541 11.9332 84.1674 11.8079 84.0584 11.7035C83.8191 11.4738 83.499 11.3475 83.1673 11.3517Z" fill="#6F7D9D" fill-opacity="0.4"/>
    <path d="M9.99266 22.4558L0.617188 17.0194L9.99266 30L19.3668 17.0194L9.99266 22.4627V22.4558Z" fill="#6F7D9D" fill-opacity="0.4"/>
    <path d="M19.3668 15.2759L9.99266 0L0.617188 15.2759L9.99266 20.7191L19.3668 15.2759Z" fill="#6F7D9D" fill-opacity="0.4"/>
</svg>
