<svg width="38" height="40" viewBox="0 0 38 40" fill="none" xmlns="http://www.w3.org/2000/svg">
    <path d="M31.1088 14.4625L3.6897 30.9969C2.07546 31.9654 0 30.8124 0 28.9214V10.473C0 2.42488 8.69386 -2.60234 15.6812 1.41021L26.2661 7.49821L31.0857 10.2655C32.6769 11.211 32.7 13.517 31.1088 14.4625Z" fill="#4383FF"/>
    <path d="M32.484 27.9783L23.1445 33.3745L13.828 38.7476C10.4842 40.6617 6.70229 40.2696 3.95808 38.3325C2.62056 37.4101 2.78199 35.3577 4.18868 34.5275L33.4987 16.9553C34.8823 16.1252 36.7041 16.9092 36.9578 18.5004C37.5343 22.0748 36.0584 25.9259 32.484 27.9783Z" fill="#4383FF" fill-opacity="0.6"/>
</svg>
