<svg width="106" height="30" viewBox="0 0 106 30" fill="none" xmlns="http://www.w3.org/2000/svg">
    <path d="M38.7096 11.3693C38.2312 11.2354 37.7363 11.1696 37.2396 11.1741C35.4746 11.1741 33.61 12.5473 33.61 14.3122V22.6482H29.5957V7.83669H33.4176V9.30815C34.3036 8.22982 35.9688 7.54323 37.7324 7.54323C38.3193 7.54323 38.6183 7.64289 39.1055 7.64289L38.7179 11.3665L38.7096 11.3693ZM43.2223 0.000421551C43.5579 -0.00196966 43.8906 0.0623402 44.2011 0.189616C44.5116 0.316891 44.7937 0.504594 45.0311 0.741824C45.2685 0.979054 45.4563 1.26108 45.5838 1.57153C45.7112 1.88197 45.7757 2.21464 45.7735 2.55022C45.7735 4.02168 44.5941 5.10002 43.1226 5.10002C41.6512 5.10002 40.4732 4.01476 40.4732 2.54468C40.5148 1.84791 40.8241 1.19418 41.3364 0.720059C41.8487 0.245941 42.5244 -0.0118915 43.2223 0.000421551ZM45.181 22.6538H41.1598V7.84223H45.181V22.6538ZM56.9472 7.55153C55.3865 7.55808 53.8708 8.07483 52.6311 9.023V7.83946H48.7109V30H52.7321V21.5699C53.8793 22.4709 55.2989 22.9547 56.7576 22.9417C58.9142 22.9417 61.0723 21.9616 62.3444 20.3919C63.5224 19.0187 64.209 17.2552 64.209 15.1968C64.209 10.8821 60.9726 7.546 56.9514 7.546M56.4641 19.3122C54.0126 19.3122 52.3473 17.6511 52.3473 15.1968C52.3473 12.7425 54.0084 11.08 56.4641 11.08C58.6208 11.08 60.286 12.9446 60.286 15.1968C60.286 17.55 58.5211 19.3122 56.4641 19.3122ZM84.4039 0.879423H88.4182V22.6482H84.4039V0.879423ZM104.606 20.2922C103.134 21.9533 100.784 22.9417 98.5261 22.9417C94.1117 22.9417 90.7742 19.9046 90.7742 15.1968C90.7742 11.08 93.6175 7.45187 98.0319 7.45187C102.149 7.45187 105.092 10.8821 105.092 15.003C105.108 15.3983 105.074 15.794 104.992 16.181H94.6045C94.7983 18.2394 96.4691 19.7108 98.6257 19.7108C100.287 19.7108 101.663 18.7308 102.355 18.0497L104.606 20.2922ZM100.878 13.3322C100.778 12.0601 99.6058 10.6827 97.935 10.6827C96.2642 10.6827 94.8979 11.9548 94.7983 13.3322H100.878ZM74.7944 7.546C73.2341 7.55234 71.7187 8.06913 70.4797 9.01746V7.83946H66.6564V30H70.6707V21.5699C71.8501 22.4544 73.1222 22.9417 74.6934 22.9417C76.85 22.9417 79.0081 21.9616 80.2802 20.3919C81.4582 19.0187 82.1448 17.2552 82.1448 15.1968C82.0451 10.8821 78.8087 7.546 74.7875 7.546M74.3002 19.3122C71.8501 19.3122 70.1848 17.6511 70.1848 15.1968C70.1848 12.7425 71.8459 11.08 74.3002 11.08C76.4583 11.08 78.1235 12.9446 78.1235 15.1968C78.1235 17.55 76.3586 19.3122 74.3002 19.3122Z" fill="#6F7D9D" fill-opacity="0.4"/>
    <path d="M16.1589 2.4451C15.3532 2.91656 14.6848 3.59052 14.2201 4.40009C13.7553 5.20967 13.5103 6.12671 13.5095 7.06021C13.5095 8.04026 13.9012 9.02447 14.394 9.90485C14.7871 10.6897 14.9809 12.0615 13.6091 12.7481C12.6291 13.3337 11.3514 12.9419 10.7645 11.9619C10.179 11.177 9.49237 10.3907 8.60783 9.80519C7.8085 9.32431 6.89328 9.07023 5.96045 9.07023C5.02761 9.07023 4.11239 9.32431 3.31306 9.80519C2.50703 10.275 1.83827 10.948 1.37346 11.7569C0.908661 12.5658 0.664062 13.4825 0.664062 14.4154C0.664062 15.3484 0.908661 16.2651 1.37346 17.074C1.83827 17.8829 2.50703 18.5559 3.31306 19.0257C4.11239 19.5066 5.02761 19.7607 5.96045 19.7607C6.89328 19.7607 7.8085 19.5066 8.60783 19.0257C9.48143 18.5112 10.1928 17.7615 10.6607 16.8621C11.0524 16.17 12.1321 15.291 13.5039 16.0759C14.4826 16.6628 14.7761 17.9405 14.2888 18.9205C13.7908 19.7866 13.5208 20.7649 13.5039 21.7638C13.5048 22.6963 13.7498 23.6124 14.2146 24.4209C14.6794 25.2294 15.3479 25.902 16.1534 26.372C16.9527 26.8523 17.8676 27.106 18.8001 27.106C19.7326 27.106 20.6475 26.8523 21.4468 26.372C22.2533 25.903 22.9225 25.2306 23.3877 24.4219C23.8529 23.6132 24.0977 22.6967 24.0977 21.7638C24.0977 20.8309 23.8529 19.9143 23.3877 19.1056C22.9225 18.297 22.2533 17.6246 21.4468 17.1556C20.5623 16.6628 19.5836 16.4635 18.5039 16.4635C17.6193 16.4635 16.4469 15.8765 16.4469 14.4051C16.4402 14.1331 16.4889 13.8627 16.5899 13.6101C16.6909 13.3575 16.8422 13.1281 17.0346 12.9358C17.2269 12.7434 17.4563 12.5921 17.7089 12.4911C17.9615 12.3901 18.2319 12.3414 18.5039 12.3481C19.4839 12.3481 20.5623 12.1543 21.4468 11.6559C22.2533 11.1869 22.9225 10.5145 23.3877 9.70588C23.8529 8.89723 24.0977 7.98066 24.0977 7.04775C24.0977 6.11484 23.8529 5.19827 23.3877 4.38962C22.9225 3.58097 22.2533 2.90855 21.4468 2.43956C20.6619 1.94677 19.6833 1.74744 18.7973 1.74744C17.9114 1.74744 16.9341 1.94123 16.1534 2.42849" fill="#6F7D9D" fill-opacity="0.4"/>
</svg>
