<svg width="111" height="30" viewBox="0 0 111 30" fill="none" xmlns="http://www.w3.org/2000/svg">
    <path d="M17.0231 13.2617V15.7499C16.9169 15.7592 16.3472 15.8085 15.2093 15.8085C14.2608 15.8085 13.5741 15.7669 13.3355 15.7499V13.2587C9.674 13.4203 6.93945 14.0593 6.93945 14.8215C6.93945 15.5837 9.67246 16.2226 13.3355 16.3843V16.3812C13.571 16.3935 14.2393 16.4197 15.1924 16.4197C16.3841 16.4197 16.9184 16.3889 17.0231 16.3812V16.3858C20.6769 16.2211 23.4037 15.5852 23.4037 14.823C23.4037 14.0609 20.6784 13.425 17.0231 13.2602V13.2617Z" fill="#6F7D9D" fill-opacity="0.4"/>
    <path d="M15.4199 0C7.1362 0 0.419922 6.71628 0.419922 15C0.419922 23.2837 7.1362 30 15.4199 30C23.7036 30 30.4199 23.2837 30.4199 15C30.4199 6.71628 23.7036 0 15.4199 0ZM17.0212 16.9939V24.1367H13.3336V16.9939C9.1902 16.8015 6.07225 15.9808 6.07225 14.9969C6.07225 14.013 9.18866 13.1924 13.3336 13.003V10.775H8.23249V7.37682H22.1177V10.775H17.0166V13.003L17.0197 13.0061C21.1585 13.197 24.2687 14.0192 24.2687 15C24.2687 15.9808 21.1585 16.8046 17.0197 16.9939H17.0212Z" fill="#6F7D9D" fill-opacity="0.4"/>
    <path d="M43.1627 8.30527V11.9082H46.6641V14.612H43.1381V20.0934C43.1381 21.3036 43.8063 21.8949 44.7856 21.8949C45.2752 21.8949 45.8418 21.7409 46.3053 21.5084L47.1814 24.186C46.2822 24.5447 45.5339 24.7003 44.5823 24.7264C41.8278 24.8296 40.0263 23.2606 40.0263 20.0934V14.612H37.6582V11.9082H40.0263V8.64093L43.1643 8.30527H43.1627ZM103.531 11.7389L103.762 13.2047C104.741 11.6342 106.053 11.4032 107.34 11.4032C108.627 11.4032 109.913 11.9175 110.607 12.6119L109.192 15.3387C108.549 14.7983 107.957 14.5134 106.927 14.5134C105.28 14.5134 103.762 15.3895 103.762 17.7299V24.4216H100.622V11.7327L103.531 11.7373V11.7389ZM95.8352 16.6028C95.6304 14.9553 94.3432 14.1316 92.5417 14.1316C90.8434 14.1316 89.453 14.9569 88.9896 16.6028H95.8367H95.8352ZM88.9387 19.2019C89.1435 20.7724 90.5093 21.9057 92.7219 21.9057C93.8797 21.9057 95.3994 21.4668 96.12 20.7216L98.1263 22.7032C96.7883 24.0921 94.6003 24.7634 92.6695 24.7634C88.2951 24.7634 85.693 22.0596 85.693 17.9948C85.693 13.9299 88.3198 11.3539 92.4385 11.3539C96.5573 11.3539 99.338 13.9807 98.8484 19.2034H88.9387V19.2019ZM75.092 6.40833V13.4603C76.2252 11.9944 77.6141 11.5556 79.0568 11.5556C82.6597 11.5556 84.2564 14.0007 84.2564 17.7345V24.4262H81.1169V17.7607C81.1169 15.4434 79.9067 14.4672 78.233 14.4672C76.3792 14.4672 75.0935 16.0378 75.0935 17.9424V24.4293H71.954V6.41295L75.0935 6.40987L75.092 6.40833ZM66.7528 8.15899V11.7619H70.2542V14.4657H66.7282V19.9471C66.7282 21.1574 67.398 21.7486 68.3757 21.7486C68.8654 21.7486 69.432 21.5946 69.8954 21.3621L70.7715 24.0397C69.8723 24.3985 69.124 24.554 68.1725 24.5802C65.4179 24.6833 63.6164 23.1113 63.6164 19.9471V14.4657H61.2483V11.7619H63.6164V8.49465L66.7544 8.15899H66.7528ZM58.078 16.6013C57.8733 14.9538 56.586 14.13 54.7846 14.13C53.0862 14.13 51.6959 14.9553 51.2324 16.6013H58.0796H58.078ZM51.1816 19.2004C51.3864 20.7709 52.7521 21.9041 54.9647 21.9041C56.1226 21.9041 57.6423 21.4653 58.3629 20.7201L60.3692 22.7017C59.0311 24.0905 56.8432 24.7618 54.9124 24.7618C50.5349 24.7618 47.9359 22.0581 47.9359 17.9932C47.9359 13.9283 50.5626 11.3524 54.6783 11.3524C58.794 11.3524 61.5748 13.9792 61.0882 19.2019H51.1816V19.2004Z" fill="#6F7D9D" fill-opacity="0.4"/>
</svg>
