<svg width="101" height="30" viewBox="0 0 101 30" fill="none" xmlns="http://www.w3.org/2000/svg">
    <path d="M0.642205 0C0.906559 0.123829 1.19874 0.126612 1.47701 0.183656C2.21024 0.332529 2.94626 0.461924 3.68088 0.601057C4.37655 0.72906 5.08057 0.850107 5.77902 0.979501C6.64861 1.1395 7.5168 1.30507 8.38639 1.46508C9.08205 1.59447 9.77772 1.71552 10.4831 1.84491C11.3527 2.00492 12.2195 2.17049 13.0891 2.3291C14.0811 2.50997 15.0745 2.68111 16.0652 2.86198C17.0558 3.04285 18.045 3.23764 19.0343 3.41851C20.0861 3.61191 21.1394 3.79696 22.1912 3.98757C22.489 4.04044 22.7853 4.11001 23.0859 4.14757C23.3252 4.17679 23.442 4.36601 23.5895 4.50376C24.3144 5.17716 25.0212 5.86727 25.7377 6.55041C26.7877 7.55217 27.8396 8.55254 28.8933 9.55152C29.1243 9.76996 29.1354 9.76997 28.9364 10.0134C28.3215 10.7662 27.6995 11.5133 27.0832 12.2646C26.5419 12.9227 26.0035 13.5864 25.4623 14.2459C24.921 14.9054 24.3589 15.5802 23.8094 16.2494C23.2598 16.9186 22.7297 17.5712 22.1884 18.2307C21.753 18.7608 21.3147 19.2881 20.8792 19.8168L19.4573 21.5504C18.9091 22.2201 18.3595 22.8898 17.8085 23.5595L16.1834 25.5352C15.6269 26.2105 15.0736 26.8848 14.5236 27.5582L12.8915 29.5589C12.7733 29.6981 12.6522 29.8372 12.5173 30C12.3016 29.4574 12.0999 28.9315 11.8828 28.4055C10.5165 24.9643 9.1493 21.5249 7.78115 18.0874C5.41495 12.1408 3.04968 6.19469 0.685336 0.249049C0.653336 0.168352 0.632466 0.0834802 0.607422 0H0.642205ZM16.9765 10.9804C17.0302 10.9986 17.0884 10.9986 17.1421 10.9804C17.6471 10.89 18.1522 10.7968 18.6572 10.7022L24.7902 9.58909L26.3346 9.31082C26.2998 9.27187 26.2859 9.25239 26.2692 9.23708C25.1979 8.22002 24.1224 7.20573 23.058 6.17614C22.9189 6.04536 22.8549 6.05092 22.7158 6.1664C20.8727 7.70986 19.0259 9.25007 17.1755 10.787C17.1059 10.8455 17.0141 10.883 16.9807 10.979L16.9515 10.9916C16.9515 10.9916 16.9626 11.0013 16.9681 11.0013C16.9737 11.0013 16.989 10.9943 16.9765 10.9804ZM3.78384 3.60634L3.74906 3.63139L12.4519 25.5241C12.5017 25.3419 12.5352 25.1556 12.552 24.9675C12.7376 23.4575 12.9231 21.9474 13.1086 20.4373C13.2765 19.046 13.4439 17.6547 13.6109 16.2633C13.7676 14.9583 13.9272 13.6536 14.0895 12.3495C14.101 12.2898 14.0947 12.2281 14.0715 12.172C14.0482 12.1158 14.009 12.0677 13.9587 12.0337C10.6751 9.31314 7.39204 6.59169 4.10942 3.86931C4.00228 3.78026 3.89237 3.69261 3.78384 3.60495V3.60634ZM26.0786 10.9916C26.0448 10.9893 26.0109 10.9893 25.9771 10.9916L23.4448 11.4507C20.9126 11.9098 18.3799 12.3671 15.8467 12.8226C15.6686 12.8546 15.6032 12.913 15.5838 13.1008C15.4641 14.1902 15.3292 15.2769 15.197 16.3649C15.0523 17.5763 14.9057 18.7886 14.7573 20.0019C14.6145 21.1919 14.4688 22.3834 14.3204 23.5762C14.2411 24.2315 14.1632 24.8868 14.0783 25.5964C18.0979 20.7087 22.0799 15.8585 26.0786 10.9902V10.9916ZM4.94143 2.42788L4.92752 2.4724L5.74841 3.15416C8.72494 5.62146 11.7005 8.08923 14.6752 10.5575C14.8074 10.6674 14.8728 10.6354 14.9813 10.5449C16.5341 9.24636 18.0886 7.95056 19.6451 6.65755L21.1436 5.40534L4.94143 2.42788Z" fill="#6F7D9D" fill-opacity="0.4"/>
    <path d="M100.665 23.8461C100.581 23.8461 100.54 23.778 100.498 23.7306C100.203 23.3884 99.89 23.0628 99.595 22.7219C99.4559 22.5536 99.2945 22.3922 99.1456 22.228C98.8423 21.8927 98.532 21.5643 98.244 21.2179C98.1188 21.0662 97.9797 20.9229 97.8447 20.7768C97.5219 20.4276 97.2005 20.0812 96.893 19.7139C96.7734 19.5747 96.6398 19.4356 96.5174 19.2965C96.1125 18.8359 95.6826 18.3935 95.2749 17.9399C94.9424 17.5754 94.6057 17.2122 94.2843 16.8352C93.9128 16.3983 93.519 15.9809 93.1392 15.5496C92.8735 15.2491 92.5966 14.9555 92.3281 14.6563C91.9232 14.2056 91.5169 13.7562 91.1162 13.304C90.8588 13.0132 90.5931 12.7252 90.3315 12.4372C90.0282 12.1032 89.7193 11.7749 89.4299 11.4284C89.2908 11.2684 89.1433 11.1196 89.0014 10.9637C88.8999 10.874 88.8127 10.7694 88.7426 10.6535C88.7111 10.7152 88.7013 10.7858 88.7148 10.8538C88.7148 14.7496 88.7148 18.6486 88.7148 22.5508C88.7148 22.7943 88.7148 22.7943 88.4629 22.7943C88.0372 22.7943 87.61 22.7943 87.1829 22.7943C87.0563 22.7943 87.0312 22.7553 87.0312 22.6357C87.0312 17.2076 87.0312 11.7814 87.0312 6.35703C87.0312 6.31668 87.0312 6.27494 87.0312 6.19702C87.3095 6.50451 87.5669 6.78277 87.8201 7.06243C88.2083 7.49375 88.5923 7.92784 88.9805 8.36055C89.7392 9.20648 90.4989 10.052 91.2595 10.897C91.7395 11.4312 92.2237 11.9613 92.7051 12.4956C93.3423 13.2052 93.9768 13.9189 94.6154 14.6285C94.9869 15.0459 95.364 15.4494 95.7355 15.8626C96.3782 16.5764 97.0169 17.2943 97.6597 18.0081C98.0771 18.4644 98.4945 18.9166 98.9439 19.4147V19.1448C98.9439 15.2491 98.9439 11.3566 98.9439 7.46731C98.9439 7.30035 98.98 7.24748 99.1567 7.25165C99.6576 7.26418 100.16 7.25165 100.661 7.25165L100.665 23.8461Z" fill="#6F7D9D" fill-opacity="0.4"/>
    <path d="M65.4484 22.7999C64.8445 22.7999 64.2421 22.7999 63.6396 22.7999C63.5283 22.7999 63.488 22.7429 63.4449 22.6608C63.2055 22.2016 62.9644 21.743 62.7214 21.2848C62.3666 20.6113 62.0132 19.9366 61.6556 19.2631C61.2507 18.4979 60.8403 17.7327 60.4423 16.9674C60.4192 16.9084 60.3771 16.8587 60.3228 16.826C60.2685 16.7933 60.2048 16.7794 60.1418 16.7866C58.9815 16.794 57.822 16.794 56.6635 16.7866C56.516 16.7866 56.4756 16.8241 56.4756 16.9744C56.4756 18.8485 56.4756 20.7227 56.4756 22.5968C56.4756 22.7637 56.4353 22.8041 56.2711 22.7999C55.8329 22.7874 55.3932 22.7916 54.9535 22.7999C54.8422 22.7999 54.806 22.7763 54.806 22.6608C54.806 20.1916 54.806 17.722 54.806 15.2519C54.806 15.0975 54.8742 15.1003 54.9855 15.1003C56.8666 15.1003 58.7491 15.1003 60.6316 15.1003C61.5791 15.1003 62.3429 14.7079 62.9593 14.0289C63.3341 13.6146 63.5763 13.0975 63.655 12.5444C63.7209 12.1412 63.7062 11.729 63.6117 11.3316C63.5172 10.9341 63.3448 10.5594 63.1045 10.229C62.8642 9.89867 62.5608 9.61926 62.2118 9.40697C61.8628 9.19468 61.4751 9.05374 61.0712 8.9923C60.8693 8.9644 60.6656 8.95184 60.4618 8.95473C58.1912 8.95473 55.9191 8.95473 53.6443 8.95473C53.4898 8.95473 53.4509 8.98812 53.4509 9.14674C53.4509 13.6092 53.4509 18.0722 53.4509 22.5356C53.4509 22.8069 53.4509 22.8069 53.1726 22.8069C52.765 22.8069 52.3573 22.8069 51.9496 22.8069C51.8202 22.8069 51.7799 22.7777 51.7813 22.6427C51.7813 21.9846 51.7813 21.3265 51.7813 20.6684C51.7813 16.2746 51.7813 11.8802 51.7813 7.48548C51.7813 7.31434 51.8091 7.2573 51.9983 7.25869C54.884 7.25869 57.7696 7.25869 60.6566 7.26704C61.3224 7.25697 61.9824 7.39131 62.5913 7.6608C63.2002 7.9303 63.7434 8.32854 64.1837 8.82812C64.8291 9.52593 65.2394 10.4087 65.3566 11.352C65.5044 12.4299 65.2821 13.526 64.7261 14.4611C64.1701 15.3963 63.3132 16.1151 62.2956 16.4999C62.1843 16.5417 62.1565 16.5598 62.2205 16.6753C62.9802 18.0944 63.7361 19.515 64.4884 20.9369C64.7917 21.5102 65.0945 22.0829 65.3969 22.6552C65.4273 22.6977 65.4451 22.7478 65.4484 22.7999Z" fill="#6F7D9D" fill-opacity="0.4"/>
    <path d="M76.005 22.7926C71.7238 22.762 68.7311 19.3866 68.3693 15.9514C68.1231 13.5973 68.7659 11.4991 70.3729 9.75719C71.9798 8.01523 74.0195 7.19156 76.3946 7.26252C78.4409 7.33301 80.3767 8.20863 81.7808 9.69892C83.1849 11.1892 83.9439 13.1736 83.8925 15.2205C83.8412 17.2675 82.9837 19.2113 81.5066 20.6293C80.0295 22.0474 78.0523 22.8248 76.005 22.7926ZM82.1978 15.0304C82.1763 13.4305 81.5264 11.9033 80.3883 10.7786C79.2503 9.65392 77.7155 9.02207 76.1154 9.01951C74.5154 9.01695 72.9786 9.6439 71.837 10.7649C70.6953 11.886 70.0405 13.4111 70.0139 15.0109C70.0055 18.3501 72.7409 21.1063 76.0495 21.1063C76.8529 21.1138 77.6499 20.9624 78.3945 20.6606C79.1391 20.3588 79.8167 19.9127 80.3882 19.3479C80.9597 18.7832 81.4138 18.1109 81.7243 17.3699C82.0349 16.6289 82.1958 15.8338 82.1978 15.0304Z" fill="#6F7D9D" fill-opacity="0.4"/>
    <path d="M41.5665 7.2587C43.7745 7.2587 45.9812 7.2587 48.1892 7.2587C48.3492 7.2587 48.384 7.30044 48.3799 7.45348C48.3687 7.89175 48.3729 8.33142 48.3799 8.76969C48.3799 8.89352 48.359 8.94082 48.2199 8.94082C43.7787 8.94082 39.3385 8.94082 34.8992 8.94082C34.7698 8.94082 34.7448 8.89908 34.7461 8.78082C34.7531 8.34255 34.7559 7.90288 34.7461 7.46461C34.7461 7.30739 34.7726 7.2573 34.9451 7.2587C37.1518 7.26148 39.3654 7.2587 41.5665 7.2587Z" fill="#6F7D9D" fill-opacity="0.4"/>
    <path d="M40.8813 17.3152C40.8813 19.0776 40.8813 20.84 40.8813 22.6023C40.8813 22.7595 40.8452 22.7999 40.688 22.7957C40.2497 22.7846 39.81 22.7874 39.3704 22.7957C39.2493 22.7957 39.1992 22.779 39.1992 22.6371C39.1992 19.1013 39.1992 15.5663 39.1992 12.0323C39.1992 11.9071 39.234 11.8751 39.3551 11.8765C39.8072 11.8765 40.2594 11.8862 40.7102 11.8765C40.8619 11.8765 40.88 11.9252 40.8786 12.056C40.8786 13.8109 40.8795 15.564 40.8813 17.3152Z" fill="#6F7D9D" fill-opacity="0.4"/>
    <path d="M43.8992 17.3402C43.8992 19.0933 43.8992 20.8473 43.8992 22.6022C43.8992 22.7567 43.8658 22.8012 43.7072 22.797C43.2689 22.7845 42.8293 22.7887 42.391 22.797C42.2616 22.797 42.2227 22.772 42.2227 22.6356C42.2227 19.1016 42.2227 15.5681 42.2227 12.035C42.2227 11.9154 42.2491 11.875 42.3757 11.8778C42.8209 11.8778 43.2662 11.8862 43.7114 11.8778C43.8505 11.8778 43.8978 11.9098 43.8978 12.0601C43.896 13.8197 43.8964 15.5797 43.8992 17.3402Z" fill="#6F7D9D" fill-opacity="0.4"/>
    <path d="M90.0987 14.3767C90.6441 14.9819 91.177 15.576 91.7127 16.166C91.7348 16.1913 91.7515 16.221 91.7618 16.253C91.7721 16.2851 91.7757 16.3189 91.7725 16.3524C91.7725 18.4505 91.7725 20.5491 91.7725 22.6482C91.7725 22.7748 91.7335 22.804 91.6125 22.8026C91.1492 22.7957 90.6858 22.8026 90.2211 22.8026C90.1321 22.8026 90.0723 22.8026 90.0723 22.6816C90.0723 19.9305 90.0723 17.1807 90.0723 14.4324C90.078 14.4125 90.087 14.3937 90.0987 14.3767Z" fill="#6F7D9D" fill-opacity="0.4"/>
    <path d="M16.9723 10.9805C16.9848 10.9944 16.9807 11.0041 16.964 11.0069C16.9473 11.0097 16.9528 11.0069 16.9473 10.9972L16.9765 10.9846L16.9723 10.9805Z" fill="#6F7D9D" fill-opacity="0.4"/>
    <path d="M76.1087 16.1423C75.8179 16.1321 75.5425 16.0094 75.3404 15.8C75.1383 15.5907 75.0254 15.3111 75.0254 15.0202C75.0254 14.7292 75.1383 14.4497 75.3404 14.2403C75.5425 14.031 75.8179 13.9083 76.1087 13.8981C76.3994 13.9083 76.6749 14.031 76.877 14.2403C77.079 14.4497 77.192 14.7292 77.192 15.0202C77.192 15.3111 77.079 15.5907 76.877 15.8C76.6749 16.0094 76.3994 16.1321 76.1087 16.1423Z" fill="#6F7D9D" fill-opacity="0.4"/>
</svg>
